<svg xmlns="http://www.w3.org/2000/svg" xmlns:xlink="http://www.w3.org/1999/xlink" viewBox="0 0 271.93 76.64"><defs><style>.cls-1{isolation:isolate;}.cls-2,.cls-5{fill:none;stroke-miterlimit:10;}.cls-2{stroke-width:0.62px;stroke:url(#linear-gradient);}.cls-3{fill:url(#linear-gradient-2);}.cls-4{mix-blend-mode:screen;opacity:0.58;fill:url(#linear-gradient-3);}.cls-5{stroke:#fff;stroke-linecap:round;stroke-width:1.24px;}</style><linearGradient id="linear-gradient" y1="38.32" x2="271.93" y2="38.32" gradientTransform="translate(97.65 174.28) rotate(-90)" gradientUnits="userSpaceOnUse"><stop offset="0" stop-color="#02e2fe"/><stop offset="0.94" stop-color="#6e3bf8"/></linearGradient><linearGradient id="linear-gradient-2" x1="6.49" y1="38.32" x2="265.44" y2="38.32" gradientTransform="matrix(1, 0, 0, 1, 0, 0)" xlink:href="#linear-gradient"/><linearGradient id="linear-gradient-3" x1="6.49" y1="32.14" x2="265.44" y2="32.14" gradientUnits="userSpaceOnUse"><stop offset="0" stop-color="#60f9a9"/><stop offset="1" stop-color="#0294fb" stop-opacity="0"/></linearGradient></defs><g class="cls-1"><g id="Camada_1" data-name="Camada 1"><rect class="cls-2" x="97.96" y="-97.34" width="76.02" height="271.32" rx="18.39" transform="translate(174.28 -97.65) rotate(90)"/><rect class="cls-3" x="6.49" y="6.49" width="258.96" height="63.66" rx="12.21"/><path class="cls-4" d="M253.24,6.08H18.7A12.2,12.2,0,0,0,6.49,18.28V57.53c0,.22,0,.44,0,.67.71-17,14.67-31.73,31.8-31.73h195.3c17.13,0,31.09,14.77,31.79,31.73,0-.23,0-.45,0-.67V18.28A12.2,12.2,0,0,0,253.24,6.08Z"/><path class="cls-5" d="M237.72,28.27l7.19,7.45a1.59,1.59,0,0,1,0,2.22l-7.19,7.45"/><path class="cls-5" d="M227.73,28.27l7.19,7.45a1.59,1.59,0,0,1,0,2.22l-7.19,7.45"/></g></g></svg>